<?xml version="1.0" encoding="utf-8"?>
<!-- Generator: Adobe Illustrator 16.0.0, SVG Export Plug-In . SVG Version: 6.00 Build 0)  -->
<!DOCTYPE svg PUBLIC "-//W3C//DTD SVG 1.1//EN" "http://www.w3.org/Graphics/SVG/1.1/DTD/svg11.dtd">
<svg version="1.1" id="Layer_1" xmlns="http://www.w3.org/2000/svg" xmlns:xlink="http://www.w3.org/1999/xlink" x="0px" y="0px"
	 width="296.579px" height="298.311px" viewBox="0 0 296.579 298.311" enable-background="new 0 0 296.579 298.311"
	 xml:space="preserve">
<g>
	<path fill-rule="evenodd" clip-rule="evenodd" d="M8.737,189.582c2.865-5.879,6.65-11.08,11.171-15.736
		c5.788-5.963,12.56-10.408,20.625-12.76c6.069-1.771,12.226-2.08,18.481-1.525c0.654,0.059,1.686-0.389,2.012-0.922
		c5.439-8.895,10.779-17.848,16.172-26.77c5.529-9.148,11.092-18.277,16.639-27.416c4.994-8.229,9.996-16.453,14.973-24.691
		c4.909-8.125,9.777-16.274,14.689-24.397c3.721-6.154,7.477-12.287,11.226-18.424c2.371-3.881,4.778-7.739,7.134-11.629
		c3.379-5.583,6.626-11.25,10.129-16.754c1.835-2.883,4.719-4.24,8.189-4.523c3.66-0.299,6.671,1.495,9.803,2.793
		c10.42,4.317,20.729,8.903,31.178,13.149c4.547,1.848,8.449,4.287,11.848,7.905c6.213,6.616,12.76,12.92,19.182,19.341
		c5.634,5.633,11.285,11.249,16.932,16.869c6.672,6.641,13.389,13.235,19.99,19.943c1.875,1.904,3.92,3.903,5.014,6.264
		c3.354,7.236,6.279,14.673,9.384,22.026c2.489,5.896,4.843,11.857,7.538,17.658c2.588,5.567,1.035,11.864-4.225,15.086
		c-6.919,4.24-13.901,8.375-20.854,12.558c-10.854,6.533-21.716,13.053-32.558,19.607c-9.2,5.564-18.365,11.186-27.564,16.752
		c-8.012,4.852-16.059,9.645-24.072,14.49c-7.898,4.779-15.773,9.596-23.661,14.391c-6.593,4.008-13.144,8.084-19.819,11.947
		c-1.531,0.887-1.696,1.74-1.527,3.293c0.957,8.76-0.541,17.094-4.516,24.992c-3.602,7.154-8.803,12.939-15.032,17.857
		c-7.186,5.674-15.154,9.566-24.366,10.619c-10.167,1.16-19.728-1.139-28.907-5.24c-12.833-5.732-23.71-14.248-33.411-24.291
		c-7.273-7.531-13.557-15.82-18.402-25.156c-4.4-8.479-7.43-17.336-7.812-27.621C4.206,202.791,5.596,196.023,8.737,189.582z
		 M128.517,142.255c18.077-0.016,36.153-0.039,54.229-0.044c3.898,0,7.8,0.128,11.697,0.057c0.906-0.017,1.951-0.406,2.68-0.959
		c9.516-7.224,18.998-14.489,28.463-21.779c8.402-6.473,16.767-12.994,25.158-19.48c2.445-1.891,4.926-3.733,7.356-5.573
		c-18.788-18.783-37.419-37.408-56.206-56.19c-25.483,34.479-51.014,69.023-76.843,103.97
		C126.557,142.255,127.538,142.256,128.517,142.255z M108.782,268.718c5.09-4.146,9.172-9.072,11.551-15.303
		c2.456-6.438,2.58-12.945,0.433-19.418c-0.499-1.504-1.99-2.74-3.185-3.941c-10.795-10.85-21.621-21.668-32.445-32.49
		c-6.811-6.811-13.602-13.641-20.479-20.383c-0.946-0.926-2.258-1.711-3.534-2.035c-12.351-3.145-22.63,0.543-31.169,9.711
		c-3.762,4.037-6.994,8.428-8.895,13.682c-2.409,6.664-2.23,13.404-0.293,20.088c4.112,14.182,12.801,25.441,23.073,35.674
		c5.451,5.43,11.392,10.236,17.964,14.217c7.883,4.775,16.187,8.402,26.91,8.447C95.736,277.257,102.579,273.773,108.782,268.718z
		 M83.825,185.457c2.089-2.803,4.223-5.664,6.48-8.693c-2.158-2.016-4.266-3.982-6.401-5.977
		c4.256-7.012,8.321-13.713,12.387-20.412c1.37-2.258,2.825-4.469,4.074-6.792c0.565-1.052,1.229-1.358,2.337-1.344
		c3.775,0.048,7.555,0.095,11.324-0.04c0.887-0.031,2.053-0.546,2.574-1.231c5.072-6.669,10.037-13.422,15.03-20.152
		c6.716-9.056,13.441-18.104,20.142-27.171c4.781-6.471,9.514-12.977,14.292-19.449c6.036-8.18,12.095-16.344,18.146-24.513
		c3.616-4.881,7.241-9.756,10.849-14.643c0.223-0.302,0.337-0.684,0.59-1.215c-4.037-1.718-7.961-3.39-11.886-5.057
		c-6.554-2.784-13.122-5.536-19.652-8.374c-1.196-0.521-1.897-0.431-2.588,0.727c-3.544,5.948-7.133,11.869-10.722,17.79
		c-4.992,8.235-10.014,16.452-14.994,24.693c-4.846,8.021-9.645,16.07-14.486,24.094c-5.935,9.833-11.898,19.648-17.838,29.479
		c-4.473,7.401-8.912,14.824-13.392,22.222c-5.812,9.596-11.651,19.176-17.472,28.768c-0.781,1.289-1.51,2.607-2.334,4.033
		C74.722,176.544,79.155,180.882,83.825,185.457z M208.86,141.771c0.053,0.141,0.106,0.28,0.16,0.42c10.476,0,20.951,0,31.428,0
		c0.07,0.186,0.141,0.372,0.211,0.559c-38.246,23.13-76.491,46.261-114.828,69.447c-1.199-1.258-2.374-2.488-3.586-3.758
		c-3.004,2.309-5.859,4.506-8.75,6.727c3.587,3.563,7.121,7.072,10.826,10.754c3.543-2.125,7.311-4.373,11.066-6.643
		c7.515-4.541,15.023-9.09,22.533-13.643c9.076-5.502,18.145-11.018,27.225-16.514c6.713-4.064,13.444-8.098,20.16-12.158
		c9.422-5.695,18.836-11.406,28.258-17.105c9.819-5.939,19.64-11.877,29.466-17.805c4.065-2.453,8.12-4.927,12.239-7.284
		c1.168-0.669,1.158-1.393,0.727-2.402c-4.49-10.497-8.977-20.995-13.596-31.804C244.446,114.38,226.653,128.076,208.86,141.771z
		 M95.536,182.21c-2.124,2.879-4.254,5.764-6.625,8.979c3.705,3.6,7.387,7.164,11.053,10.74c2.359,2.303,4.67,4.656,7.076,6.908
		c0.402,0.377,1.42,0.699,1.74,0.469c2.662-1.906,5.227-3.947,7.914-6.021C109.557,196.175,102.611,189.257,95.536,182.21z"/>
	<path fill-rule="evenodd" clip-rule="evenodd" fill="#FFFFFF" d="M125.052,142.255c1.505,0,2.485,0.001,3.465,0
		c18.077-0.016,36.153-0.039,54.229-0.044c3.898,0,7.8,0.128,11.697,0.057c0.906-0.017,1.951-0.406,2.68-0.959
		c9.516-7.224,18.998-14.489,28.463-21.779c8.402-6.473,16.767-12.994,25.158-19.48c2.445-1.891,4.926-3.733,7.356-5.573
		c-18.788-18.783-37.419-37.408-56.206-56.19C176.412,72.764,150.881,107.309,125.052,142.255z"/>
	<path fill-rule="evenodd" clip-rule="evenodd" fill="#FFFFFF" d="M61.803,268.519c-6.572-3.98-12.513-8.787-17.964-14.217
		c-10.272-10.232-18.961-21.492-23.073-35.674c-1.938-6.684-2.116-13.424,0.293-20.088c1.9-5.254,5.133-9.645,8.895-13.682
		c8.539-9.168,18.818-12.855,31.169-9.711c1.276,0.324,2.588,1.109,3.534,2.035c6.877,6.742,13.668,13.572,20.479,20.383
		c10.824,10.822,21.65,21.641,32.445,32.49c1.194,1.201,2.686,2.438,3.185,3.941c2.147,6.473,2.023,12.98-0.433,19.418
		c-2.379,6.23-6.461,11.156-11.551,15.303c-6.203,5.055-13.046,8.539-20.068,8.248C77.99,276.921,69.686,273.294,61.803,268.519z
		 M52.163,221.695c-1.09-3.543-3.557-5.816-7.125-6.729c-3.344-0.855-6.286,1.635-6.167,5.049c0.146,4.18,4.394,8.297,8.571,8.309
		C51.081,228.332,53.282,225.332,52.163,221.695z M58.768,244.833c-0.729-3.656-4.197-6.898-7.912-7.393
		c-3.023-0.404-5.504,1.869-5.473,5.016c0.041,4.316,4.313,8.492,8.648,8.459C57.317,250.89,59.432,248.173,58.768,244.833z
		 M67.381,249.716c0.861,3.023,2.758,5.084,5.565,6.24c2.164,0.891,4.515,1.063,6.303-0.762c1.847-1.883,1.56-4.227,0.658-6.494
		c-1.269-3.191-4.505-5.461-7.775-5.508C68.311,243.138,66.313,245.97,67.381,249.716z"/>
	<path fill-rule="evenodd" clip-rule="evenodd" fill="#FFFFFF" d="M70.286,172.201c4.437,4.344,8.869,8.682,13.539,13.256
		c2.089-2.803,4.223-5.664,6.48-8.693c-2.158-2.016-4.266-3.982-6.401-5.977c4.256-7.012,8.321-13.713,12.387-20.412
		c1.37-2.258,2.825-4.469,4.074-6.792c0.565-1.052,1.229-1.358,2.337-1.344c3.775,0.048,7.555,0.095,11.324-0.04
		c0.887-0.031,2.053-0.546,2.574-1.231c5.072-6.669,10.037-13.422,15.03-20.152c6.716-9.056,13.441-18.104,20.142-27.171
		c4.781-6.471,9.514-12.977,14.292-19.449c6.036-8.18,12.095-16.344,18.146-24.513c3.616-4.881,7.241-9.756,10.849-14.643
		c0.223-0.302,0.337-0.684,0.59-1.215c-4.037-1.718-7.961-3.39-11.886-5.057c-6.554-2.784-13.122-5.536-19.652-8.374
		c-1.196-0.521-1.897-0.431-2.588,0.727c-3.544,5.948-7.133,11.869-10.722,17.79c-4.992,8.235-10.014,16.452-14.994,24.693
		c-4.846,8.021-9.645,16.07-14.486,24.094c-5.935,9.833-11.898,19.648-17.838,29.479c-4.473,7.401-8.912,14.824-13.392,22.222
		c-5.812,9.596-11.651,19.176-17.472,28.768C71.838,169.457,71.11,170.775,70.286,172.201z"/>
	<path fill-rule="evenodd" clip-rule="evenodd" fill="#FFFFFF" d="M262.399,100.562c-17.953,13.818-35.746,27.515-53.539,41.21
		c0.053,0.141,0.106,0.28,0.16,0.42c10.476,0,20.951,0,31.428,0c0.07,0.186,0.141,0.372,0.211,0.559
		c-38.246,23.13-76.491,46.261-114.828,69.447c-1.199-1.258-2.374-2.488-3.586-3.758c-3.004,2.309-5.859,4.506-8.75,6.727
		c3.587,3.563,7.121,7.072,10.826,10.754c3.543-2.125,7.311-4.373,11.066-6.643c7.515-4.541,15.023-9.09,22.533-13.643
		c9.076-5.502,18.145-11.018,27.225-16.514c6.713-4.064,13.444-8.098,20.16-12.158c9.422-5.695,18.836-11.406,28.258-17.105
		c9.819-5.939,19.64-11.877,29.466-17.805c4.065-2.453,8.12-4.927,12.239-7.284c1.168-0.669,1.158-1.393,0.727-2.402
		C271.504,121.868,267.018,111.37,262.399,100.562z"/>
	<path fill-rule="evenodd" clip-rule="evenodd" fill="#FFFFFF" d="M116.694,203.285c-7.137-7.109-14.083-14.027-21.158-21.074
		c-2.124,2.879-4.254,5.764-6.625,8.979c3.705,3.6,7.387,7.164,11.053,10.74c2.359,2.303,4.67,4.656,7.076,6.908
		c0.402,0.377,1.42,0.699,1.74,0.469C111.442,207.4,114.006,205.359,116.694,203.285z"/>
	<path fill-rule="evenodd" clip-rule="evenodd" d="M47.442,228.324c3.639,0.008,5.84-2.992,4.721-6.629
		c-1.09-3.543-3.557-5.816-7.125-6.729c-3.344-0.855-6.286,1.635-6.167,5.049C39.016,224.195,43.264,228.312,47.442,228.324z"/>
	<path fill-rule="evenodd" clip-rule="evenodd" d="M54.032,250.916c3.285-0.025,5.4-2.742,4.736-6.082
		c-0.729-3.656-4.197-6.898-7.912-7.393c-3.023-0.404-5.504,1.869-5.473,5.016C45.424,246.773,49.696,250.949,54.032,250.916z"/>
	<path fill-rule="evenodd" clip-rule="evenodd" d="M72.132,243.193c-3.821-0.055-5.819,2.777-4.751,6.523
		c0.861,3.023,2.758,5.084,5.565,6.24c2.164,0.891,4.515,1.063,6.303-0.762c1.847-1.883,1.56-4.227,0.658-6.494
		C78.639,245.509,75.403,243.24,72.132,243.193z"/>
</g>
</svg>
