<?xml version="1.0" encoding="utf-8"?>
<!-- Generator: Adobe Illustrator 16.0.0, SVG Export Plug-In . SVG Version: 6.00 Build 0)  -->
<!DOCTYPE svg PUBLIC "-//W3C//DTD SVG 1.1//EN" "http://www.w3.org/Graphics/SVG/1.1/DTD/svg11.dtd">
<svg version="1.1" id="Layer_1" xmlns="http://www.w3.org/2000/svg" xmlns:xlink="http://www.w3.org/1999/xlink" x="0px" y="0px"
	 width="296.579px" height="298.311px" viewBox="0 0 296.579 298.311" enable-background="new 0 0 296.579 298.311"
	 xml:space="preserve">
<g>
	<path fill-rule="evenodd" clip-rule="evenodd" d="M292.263,209.267c-0.382,10.285-3.411,19.143-7.812,27.621
		c-4.846,9.336-11.129,17.625-18.402,25.156c-9.701,10.043-20.578,18.559-33.411,24.291c-9.18,4.102-18.74,6.4-28.907,5.24
		c-9.212-1.053-17.181-4.945-24.366-10.619c-6.229-4.918-11.431-10.703-15.032-17.857c-3.975-7.898-5.473-16.232-4.516-24.992
		c0.169-1.553,0.004-2.406-1.527-3.293c-6.676-3.863-13.227-7.939-19.819-11.947c-7.888-4.795-15.763-9.611-23.661-14.391
		c-8.014-4.846-16.06-9.639-24.072-14.49c-9.199-5.566-18.364-11.188-27.565-16.752c-10.841-6.555-21.703-13.074-32.557-19.607
		c-6.953-4.184-13.936-8.318-20.855-12.558c-5.259-3.222-6.812-9.519-4.225-15.086c2.695-5.801,5.049-11.762,7.539-17.658
		c3.104-7.354,6.029-14.79,9.384-22.026c1.094-2.36,3.139-4.359,5.013-6.264c6.602-6.708,13.319-13.303,19.99-19.943
		c5.647-5.62,11.298-11.236,16.932-16.869c6.422-6.421,12.969-12.725,19.182-19.341c3.397-3.618,7.3-6.058,11.847-7.905
		c10.449-4.246,20.758-8.832,31.178-13.149c3.131-1.298,6.142-3.092,9.803-2.793c3.471,0.283,6.354,1.641,8.189,4.523
		c3.503,5.504,6.75,11.171,10.129,16.754c2.355,3.89,4.763,7.748,7.134,11.629c3.749,6.137,7.505,12.27,11.226,18.424
		c4.912,8.123,9.78,16.272,14.689,24.397c4.977,8.238,9.979,16.462,14.973,24.691c5.547,9.139,11.109,18.268,16.639,27.416
		c5.393,8.922,10.732,17.875,16.172,26.77c0.326,0.533,1.357,0.98,2.012,0.922c6.256-0.555,12.412-0.246,18.481,1.525
		c8.065,2.352,14.837,6.797,20.625,12.76c4.521,4.656,8.306,9.857,11.171,15.736C290.983,196.023,292.374,202.791,292.263,209.267z
		 M171.527,142.255c-25.829-34.946-51.359-69.491-76.842-103.97c-18.788,18.782-37.418,37.407-56.207,56.19
		c2.431,1.84,4.912,3.683,7.356,5.573c8.392,6.486,16.756,13.008,25.158,19.48c9.464,7.29,18.947,14.556,28.463,21.779
		c0.728,0.553,1.773,0.942,2.68,0.959c3.897,0.071,7.798-0.057,11.697-0.057c18.076,0.005,36.152,0.028,54.229,0.044
		C169.042,142.256,170.022,142.255,171.527,142.255z M207.866,276.966c10.724-0.045,19.027-3.672,26.91-8.447
		c6.572-3.98,12.513-8.787,17.964-14.217c10.272-10.232,18.961-21.492,23.073-35.674c1.938-6.684,2.116-13.424-0.293-20.088
		c-1.9-5.254-5.133-9.645-8.895-13.682c-8.539-9.168-18.818-12.855-31.169-9.711c-1.276,0.324-2.588,1.109-3.534,2.035
		c-6.877,6.742-13.668,13.572-20.479,20.383c-10.824,10.822-21.65,21.641-32.445,32.49c-1.194,1.201-2.686,2.438-3.185,3.941
		c-2.147,6.473-2.023,12.98,0.433,19.418c2.379,6.23,6.461,11.156,11.551,15.303C194,273.773,200.843,277.257,207.866,276.966z
		 M226.293,172.201c-0.824-1.426-1.553-2.744-2.334-4.033c-5.82-9.592-11.66-19.172-17.472-28.768
		c-4.479-7.397-8.919-14.82-13.392-22.222c-5.939-9.831-11.903-19.646-17.838-29.479c-4.842-8.023-9.641-16.073-14.486-24.094
		c-4.98-8.241-10.002-16.458-14.994-24.693c-3.589-5.921-7.177-11.842-10.722-17.79c-0.69-1.157-1.392-1.247-2.588-0.727
		c-6.531,2.838-13.099,5.59-19.652,8.374c-3.925,1.667-7.849,3.339-11.885,5.057c0.252,0.531,0.366,0.913,0.589,1.215
		c3.608,4.887,7.233,9.762,10.849,14.643c6.052,8.169,12.11,16.333,18.146,24.513c4.778,6.473,9.511,12.979,14.292,19.449
		c6.7,9.067,13.426,18.115,20.142,27.171c4.993,6.73,9.958,13.483,15.03,20.152c0.521,0.686,1.688,1.2,2.574,1.231
		c3.77,0.135,7.549,0.088,11.324,0.04c1.107-0.015,1.771,0.292,2.337,1.344c1.249,2.323,2.704,4.534,4.074,6.792
		c4.065,6.699,8.131,13.4,12.387,20.412c-2.136,1.994-4.243,3.961-6.401,5.977c2.258,3.029,4.392,5.891,6.48,8.693
		C217.424,180.882,221.857,176.544,226.293,172.201z M34.181,100.562c-4.62,10.809-9.106,21.307-13.596,31.804
		c-0.432,1.01-0.441,1.733,0.726,2.402c4.12,2.357,8.174,4.831,12.239,7.284c9.826,5.928,19.646,11.866,29.466,17.805
		c9.421,5.699,18.835,11.41,28.258,17.105c6.715,4.061,13.446,8.094,20.159,12.158c9.081,5.496,18.149,11.012,27.226,16.514
		c7.509,4.553,15.018,9.102,22.533,13.643c3.756,2.27,7.523,4.518,11.066,6.643c3.705-3.682,7.239-7.191,10.826-10.754
		c-2.891-2.221-5.746-4.418-8.75-6.727c-1.212,1.27-2.387,2.5-3.586,3.758C132.412,189.011,94.166,165.88,55.92,142.75
		c0.071-0.187,0.141-0.373,0.211-0.559c10.476,0,20.952,0,31.428,0c0.053-0.14,0.106-0.279,0.16-0.42
		C69.926,128.076,52.133,114.38,34.181,100.562z M179.885,203.285c2.688,2.074,5.252,4.115,7.914,6.021
		c0.32,0.23,1.338-0.092,1.74-0.469c2.406-2.252,4.717-4.605,7.076-6.908c3.666-3.576,7.348-7.141,11.053-10.74
		c-2.371-3.215-4.501-6.1-6.625-8.979C193.968,189.257,187.022,196.175,179.885,203.285z"/>
	<path fill-rule="evenodd" clip-rule="evenodd" fill="#FFFFFF" d="M171.527,142.255c-1.505,0-2.485,0.001-3.465,0
		c-18.077-0.016-36.153-0.039-54.229-0.044c-3.899,0-7.8,0.128-11.697,0.057c-0.907-0.017-1.952-0.406-2.68-0.959
		c-9.516-7.224-18.999-14.489-28.463-21.779c-8.402-6.473-16.767-12.994-25.158-19.48c-2.445-1.891-4.926-3.733-7.356-5.573
		c18.789-18.783,37.419-37.408,56.207-56.19C120.167,72.764,145.698,107.309,171.527,142.255z"/>
	<path fill-rule="evenodd" clip-rule="evenodd" fill="#FFFFFF" d="M207.866,276.966c-7.022,0.291-13.865-3.193-20.068-8.248
		c-5.09-4.146-9.172-9.072-11.551-15.303c-2.456-6.438-2.58-12.945-0.433-19.418c0.499-1.504,1.99-2.74,3.185-3.941
		c10.795-10.85,21.621-21.668,32.445-32.49c6.811-6.811,13.602-13.641,20.479-20.383c0.946-0.926,2.258-1.711,3.534-2.035
		c12.351-3.145,22.63,0.543,31.169,9.711c3.762,4.037,6.994,8.428,8.895,13.682c2.409,6.664,2.23,13.404,0.293,20.088
		c-4.112,14.182-12.801,25.441-23.073,35.674c-5.451,5.43-11.392,10.236-17.964,14.217
		C226.893,273.294,218.589,276.921,207.866,276.966z M249.137,228.324c4.178-0.012,8.426-4.129,8.571-8.309
		c0.119-3.414-2.823-5.904-6.167-5.049c-3.568,0.912-6.035,3.186-7.125,6.729C243.297,225.332,245.499,228.332,249.137,228.324z
		 M242.547,250.916c4.336,0.033,8.607-4.143,8.648-8.459c0.031-3.146-2.449-5.42-5.473-5.016c-3.715,0.494-7.184,3.736-7.912,7.393
		C237.147,248.173,239.262,250.89,242.547,250.916z M224.447,243.193c-3.271,0.047-6.507,2.316-7.775,5.508
		c-0.901,2.268-1.188,4.611,0.658,6.494c1.788,1.824,4.139,1.652,6.303,0.762c2.808-1.156,4.704-3.217,5.565-6.24
		C230.266,245.97,228.268,243.138,224.447,243.193z"/>
	<path fill-rule="evenodd" clip-rule="evenodd" fill="#FFFFFF" d="M226.293,172.201c-4.437,4.344-8.869,8.682-13.539,13.256
		c-2.089-2.803-4.223-5.664-6.48-8.693c2.158-2.016,4.266-3.982,6.401-5.977c-4.256-7.012-8.321-13.713-12.387-20.412
		c-1.37-2.258-2.825-4.469-4.074-6.792c-0.565-1.052-1.229-1.358-2.337-1.344c-3.775,0.048-7.555,0.095-11.324-0.04
		c-0.887-0.031-2.053-0.546-2.574-1.231c-5.072-6.669-10.037-13.422-15.03-20.152c-6.716-9.056-13.441-18.104-20.142-27.171
		c-4.781-6.471-9.514-12.977-14.292-19.449c-6.037-8.18-12.095-16.344-18.146-24.513c-3.616-4.881-7.241-9.756-10.849-14.643
		c-0.223-0.302-0.336-0.684-0.589-1.215c4.037-1.718,7.96-3.39,11.885-5.057c6.554-2.784,13.122-5.536,19.652-8.374
		c1.196-0.521,1.898-0.431,2.588,0.727c3.544,5.948,7.133,11.869,10.722,17.79c4.992,8.235,10.014,16.452,14.994,24.693
		c4.846,8.021,9.645,16.07,14.486,24.094c5.935,9.833,11.898,19.648,17.838,29.479c4.473,7.401,8.912,14.824,13.392,22.222
		c5.812,9.596,11.651,19.176,17.472,28.768C224.741,169.457,225.469,170.775,226.293,172.201z"/>
	<path fill-rule="evenodd" clip-rule="evenodd" fill="#FFFFFF" d="M34.181,100.562c17.952,13.818,35.745,27.515,53.539,41.21
		c-0.053,0.141-0.106,0.28-0.16,0.42c-10.476,0-20.952,0-31.428,0c-0.071,0.186-0.141,0.372-0.211,0.559
		c38.246,23.13,76.492,46.261,114.829,69.447c1.199-1.258,2.374-2.488,3.586-3.758c3.004,2.309,5.859,4.506,8.75,6.727
		c-3.587,3.563-7.121,7.072-10.826,10.754c-3.543-2.125-7.311-4.373-11.066-6.643c-7.515-4.541-15.023-9.09-22.533-13.643
		c-9.076-5.502-18.145-11.018-27.226-16.514c-6.713-4.064-13.444-8.098-20.159-12.158c-9.423-5.695-18.837-11.406-28.258-17.105
		c-9.819-5.939-19.64-11.877-29.466-17.805c-4.065-2.453-8.12-4.927-12.239-7.284c-1.167-0.669-1.158-1.393-0.726-2.402
		C25.074,121.868,29.561,111.37,34.181,100.562z"/>
	<path fill-rule="evenodd" clip-rule="evenodd" fill="#FFFFFF" d="M179.885,203.285c7.137-7.109,14.083-14.027,21.158-21.074
		c2.124,2.879,4.254,5.764,6.625,8.979c-3.705,3.6-7.387,7.164-11.053,10.74c-2.359,2.303-4.67,4.656-7.076,6.908
		c-0.402,0.377-1.42,0.699-1.74,0.469C185.137,207.4,182.573,205.359,179.885,203.285z"/>
	<path fill-rule="evenodd" clip-rule="evenodd" d="M249.137,228.324c-3.639,0.008-5.84-2.992-4.721-6.629
		c1.09-3.543,3.557-5.816,7.125-6.729c3.344-0.855,6.286,1.635,6.167,5.049C257.563,224.195,253.315,228.312,249.137,228.324z"/>
	<path fill-rule="evenodd" clip-rule="evenodd" d="M242.547,250.916c-3.285-0.025-5.4-2.742-4.736-6.082
		c0.729-3.656,4.197-6.898,7.912-7.393c3.023-0.404,5.504,1.869,5.473,5.016C251.155,246.773,246.883,250.949,242.547,250.916z"/>
	<path fill-rule="evenodd" clip-rule="evenodd" d="M224.447,243.193c3.821-0.055,5.819,2.777,4.751,6.523
		c-0.861,3.023-2.758,5.084-5.565,6.24c-2.164,0.891-4.515,1.063-6.303-0.762c-1.847-1.883-1.56-4.227-0.658-6.494
		C217.94,245.509,221.176,243.24,224.447,243.193z"/>
</g>
</svg>
